HIERARCHY
ROOT joint_Root
{
	OFFSET 0.0 0.0 0.0
	CHANNELS 6 Xposition Yposition Zposition Zrotation Xrotation Yrotation 
	JOINT Hips
	{
		OFFSET -0.726466 93.3139 -2.00062
		CHANNELS 6 Xposition Yposition Zposition Zrotation Xrotation Yrotation 
		JOINT Spine
		{
			OFFSET 15.7357 0.0 0.0
			CHANNELS 6 Xposition Yposition Zposition Zrotation Xrotation Yrotation 
			JOINT Chest
			{
				OFFSET 8.98455 -0.406207 0.0
				CHANNELS 6 Xposition Yposition Zposition Zrotation Xrotation Yrotation 
				JOINT Neck
				{
					OFFSET 16.3773 0.0 0.0
					CHANNELS 6 Xposition Yposition Zposition Zrotation Xrotation Yrotation 
					JOINT Head
					{
						OFFSET 6.45672 0.0 0.0
						CHANNELS 6 Xposition Yposition Zposition Zrotation Xrotation Yrotation 
						End Site
						{
							OFFSET 0.0 0.0 0.0
						}
					}
				}
				JOINT Shoulder_L
				{
					OFFSET 12.9942 -0.242716 4.98039
					CHANNELS 6 Xposition Yposition Zposition Zrotation Xrotation Yrotation 
					JOINT UpperArm_L
					{
						OFFSET 5.34809 0.0 0.0
						CHANNELS 6 Xposition Yposition Zposition Zrotation Xrotation Yrotation 
						JOINT LowerArm_L
						{
							OFFSET 24.3286 1.87007e-05 0.0
							CHANNELS 6 Xposition Yposition Zposition Zrotation Xrotation Yrotation 
							JOINT Hand_L
							{
								OFFSET 22.2916 0.0 0.0
								CHANNELS 6 Xposition Yposition Zposition Zrotation Xrotation Yrotation 
								End Site
								{
									OFFSET 0.0 0.0 0.0
								}
							}
						}
					}
				}
				JOINT Shoulder_R
				{
					OFFSET 12.9945 -0.242716 -4.98039
					CHANNELS 6 Xposition Yposition Zposition Zrotation Xrotation Yrotation 
					JOINT UpperArm_R
					{
						OFFSET -5.34813 0.0 0.0
						CHANNELS 6 Xposition Yposition Zposition Zrotation Xrotation Yrotation 
						JOINT LowerArm_R
						{
							OFFSET -24.3289 0.000322201 0.0
							CHANNELS 6 Xposition Yposition Zposition Zrotation Xrotation Yrotation 
							JOINT Hand_R
							{
								OFFSET -22.2915 -0.000108084 0.0
								CHANNELS 6 Xposition Yposition Zposition Zrotation Xrotation Yrotation 
								End Site
								{
									OFFSET 0.0 0.0 0.0
								}
							}
						}
					}
				}
			}
		}
		JOINT UpperLeg_L
		{
			OFFSET -2.19248 -6.46944 0.0
			CHANNELS 6 Xposition Yposition Zposition Zrotation Xrotation Yrotation 
			JOINT LowerLeg_L
			{
				OFFSET 39.0811 0.0 -1.23785e-05
				CHANNELS 6 Xposition Yposition Zposition Zrotation Xrotation Yrotation 
				JOINT Foot_L
				{
					OFFSET 40.9854 0.0 -1.26872e-05
					CHANNELS 6 Xposition Yposition Zposition Zrotation Xrotation Yrotation 
					JOINT Toes_L
					{
						OFFSET 11.7543 0.0 0.0
						CHANNELS 6 Xposition Yposition Zposition Zrotation Xrotation Yrotation 
						End Site
						{
							OFFSET 0.0 0.0 0.0
						}
					}
				}
			}
		}
		JOINT UpperLeg_R
		{
			OFFSET -2.19251 6.46944 0.0
			CHANNELS 6 Xposition Yposition Zposition Zrotation Xrotation Yrotation 
			JOINT LowerLeg_R
			{
				OFFSET -39.0811 -0.00228153 -0.0401928
				CHANNELS 6 Xposition Yposition Zposition Zrotation Xrotation Yrotation 
				JOINT Foot_R
				{
					OFFSET -40.9854 0.0 0.0
					CHANNELS 6 Xposition Yposition Zposition Zrotation Xrotation Yrotation 
					JOINT Toes_R
					{
						OFFSET -11.7543 0.0 0.0
						CHANNELS 6 Xposition Yposition Zposition Zrotation Xrotation Yrotation 
						End Site
						{
							OFFSET 0.0 0.0 0.0
						}
					}
				}
			}
		}
	}
}
MOTION
Frames:	8
Frame Time:	0.0333333
0.000000 0.000000 0.000000 0.000000 0.000000 -0.000000 -1.459380 92.867500 -0.696573 88.947100 -3.512940 2.292570 15.735700 0.000005 -0.000001 95.921100 86.287200 -95.680900 8.984550 -0.406207 -0.000000 -0.381496 0.748782 0.482709 16.377300 -0.000001 -0.000001 2.271510 -1.988210 3.533300 6.456720 -0.000001 -0.000000 5.022140 -0.419119 -3.910610 12.994200 -0.242716 4.980390 -90.641200 1.997900 -72.203500 5.348090 -0.000007 -0.000001 -68.553000 40.197700 -10.528200 24.328600 0.000019 0.000005 3.130270 7.859780 -21.796900 22.291600 -0.000001 0.000005 3.708500 5.488850 -6.090650 12.994500 -0.242716 -4.980390 87.464400 8.608760 -73.519700 -5.348130 -0.000001 -0.000004 -64.611100 37.791300 -12.484600 -24.328900 0.000322 -0.000009 4.830830 13.300600 -20.175000 -22.291500 -0.000108 -0.000004 6.356200 5.321440 -0.535132 -2.192480 -6.469440 -0.000000 -175.579000 -8.150590 -1.557570 39.081100 -0.000007 -0.000012 -0.079422 0.256321 17.215700 40.985400 -0.000006 -0.000013 -1.626330 2.325380 -63.292200 11.754300 -0.000000 0.000003 -0.000000 -0.000004 -16.577600 -2.192510 6.469440 -0.000001 179.389000 10.203000 -179.033000 -39.081100 -0.002282 -0.040193 -0.045587 0.192086 14.287800 -40.985400 0.000008 0.000006 1.894630 7.552340 -63.356500 -11.754300 -0.000006 -0.000006 -0.003610 -0.047326 -18.498000
0.000000 0.000000 0.000000 0.000000 0.000000 -0.000000 -1.429600 92.885800 -0.726413 88.964000 -3.526340 2.202850 15.735700 0.000005 -0.000001 96.074200 86.350300 -95.883400 8.984550 -0.406207 -0.000000 -0.508793 0.758445 0.384764 16.377300 -0.000001 -0.000001 2.377430 -2.011360 3.418170 6.456720 -0.000001 -0.000000 5.148800 -0.484799 -3.655370 12.994200 -0.242716 4.980390 -90.612800 1.902930 -72.145400 5.348090 -0.000007 -0.000001 -68.606600 39.978900 -10.561000 24.328600 0.000019 0.000005 3.189420 8.006610 -21.804200 22.291600 -0.000001 0.000005 3.723840 5.488400 -6.073060 12.994500 -0.242716 -4.980390 87.429400 8.620690 -73.326400 -5.348130 -0.000001 -0.000004 -64.475900 36.032800 -12.341400 -24.328900 0.000322 -0.000009 5.777990 14.037300 -22.648000 -22.291500 -0.000108 -0.000004 4.294910 5.296640 0.171597 -2.192480 -6.469440 -0.000000 -175.636000 -8.201780 -1.587520 39.081100 -0.000007 -0.000012 -0.077688 0.253155 17.060000 40.985400 -0.000006 -0.000013 -1.600390 2.329490 -63.199500 11.754300 -0.000000 0.000003 -0.000000 -0.000007 -16.577800 -2.192510 6.469440 -0.000001 179.356000 10.315400 -179.074000 -39.081100 -0.002282 -0.040193 -0.043430 0.185642 14.138300 -40.985400 0.000008 0.000006 1.874360 7.716880 -63.255600 -11.754300 -0.000006 -0.000006 -0.003404 -0.045091 -18.407000
0.000000 0.000000 0.000000 0.000000 0.000000 -0.000000 -1.396460 92.895100 -0.753750 88.969200 -3.592960 2.163870 15.735700 0.000005 -0.000001 95.689200 86.409100 -95.557100 8.984550 -0.406207 -0.000000 -0.620317 0.702141 0.267776 16.377300 -0.000001 -0.000001 2.528820 -2.040760 3.334670 6.456720 -0.000001 -0.000000 5.364110 -0.501053 -3.547880 12.994200 -0.242716 4.980390 -90.589400 1.819740 -72.051400 5.348090 -0.000007 -0.000001 -68.713200 39.702200 -10.506000 24.328600 0.000019 0.000005 3.168630 7.951060 -21.811300 22.291600 -0.000001 0.000005 3.847710 5.489610 -6.120250 12.994500 -0.242716 -4.980390 87.388500 8.589120 -73.017500 -5.348130 -0.000001 -0.000004 -63.966300 33.539800 -12.572700 -24.328900 0.000322 -0.000009 6.475980 12.896100 -26.965600 -22.291500 -0.000108 -0.000004 3.417360 5.282050 0.570094 -2.192480 -6.469440 -0.000000 -175.671000 -8.343030 -1.608790 39.081100 -0.000007 -0.000012 -0.076173 0.249116 17.002100 40.985400 -0.000006 -0.000013 -1.565010 2.359530 -63.155800 11.754300 -0.000000 0.000003 -0.000000 -0.000004 -16.577600 -2.192510 6.469440 -0.000001 179.324000 10.411600 -179.100000 -39.081100 -0.002282 -0.040193 -0.042464 0.182670 14.074200 -40.985400 0.000008 0.000006 1.875200 7.863070 -63.204500 -11.754300 -0.000006 -0.000006 -0.003763 -0.048956 -18.564400
0.000000 0.000000 0.000000 0.000000 0.000000 -0.000000 -1.336300 92.904500 -0.802842 88.941400 -4.004960 2.184670 15.735700 0.000005 -0.000001 95.559000 86.453700 -95.483500 8.984550 -0.406207 -0.000000 -0.707134 0.681351 0.155044 16.377300 -0.000001 -0.000001 2.944440 -1.974730 3.245210 6.456720 -0.000001 -0.000000 5.469660 -0.401266 -3.442230 12.994200 -0.242716 4.980390 -90.567200 1.732800 -71.872100 5.348090 -0.000007 -0.000001 -68.890300 39.343700 -10.375000 24.328600 0.000019 0.000005 3.243550 8.136760 -21.820900 22.291600 -0.000001 0.000005 3.811220 5.487830 -6.050800 12.994500 -0.242716 -4.980390 87.314800 8.611850 -72.609200 -5.348130 -0.000001 -0.000004 -62.673500 30.639400 -13.827600 -24.328900 0.000322 -0.000009 7.003770 10.972800 -32.847600 -22.291500 -0.000108 -0.000004 3.786560 5.299490 0.089150 -2.192480 -6.469440 -0.000000 -175.672000 -8.584670 -1.535700 39.081100 -0.000007 -0.000012 -0.077058 0.252713 16.957600 40.985400 -0.000006 -0.000013 -1.555880 2.196870 -63.143200 11.754300 -0.000000 0.000003 -0.000001 -0.000010 -16.577900 -2.192510 6.469440 -0.000001 179.303000 10.222100 -179.137000 -39.081100 -0.002282 -0.040193 -0.042035 0.181298 14.048800 -40.985400 0.000008 0.000006 1.887530 8.125930 -63.124200 -11.754300 -0.000006 -0.000006 -0.003545 -0.046620 -18.469300
0.000000 0.000000 0.000000 0.000000 0.000000 -0.000000 -1.275590 92.899100 -0.848368 88.833400 -4.736560 2.291770 15.735700 0.000005 -0.000001 95.215800 86.479700 -95.183700 8.984550 -0.406207 -0.000000 -0.754686 0.637535 0.068433 16.377300 -0.000001 -0.000001 3.474520 -1.749430 3.204990 6.456720 -0.000001 -0.000000 5.782500 -0.178764 -3.317860 12.994200 -0.242716 4.980390 -90.548700 1.654310 -71.647700 5.348090 -0.000007 -0.000001 -69.027200 39.119800 -10.176200 24.328600 0.000019 0.000005 3.217410 8.077900 -21.803000 22.291600 -0.000001 0.000005 3.708710 5.487620 -6.042580 12.994500 -0.242716 -4.980390 87.253700 8.639700 -72.290600 -5.348130 -0.000001 -0.000004 -60.967700 27.319200 -16.148000 -24.328900 0.000322 -0.000009 8.440110 9.998380 -40.517600 -22.291500 -0.000108 -0.000004 5.326020 5.291860 0.296074 -2.192480 -6.469440 -0.000000 -175.578000 -9.062620 -1.427930 39.081100 -0.000007 -0.000012 -0.077832 0.252702 17.118700 40.985400 -0.000006 -0.000013 -1.550640 1.949190 -63.256800 11.754300 -0.000000 0.000003 -0.000001 -0.000009 -16.577800 -2.192510 6.469440 -0.000001 179.325000 10.007000 -179.142000 -39.081100 -0.002282 -0.040193 -0.042200 0.181171 14.107300 -40.985400 0.000008 0.000006 1.901560 8.630980 -63.065000 -11.754300 -0.000006 -0.000006 -0.003667 -0.047932 -18.522700
0.000000 0.000000 0.000000 0.000000 0.000000 -0.000000 -1.186020 92.888600 -0.873152 88.727300 -5.681360 2.495350 15.735700 0.000005 -0.000001 95.329600 86.487000 -95.327700 8.984550 -0.406207 -0.000000 -0.770510 0.652327 0.008117 16.377300 -0.000001 -0.000001 3.989010 -1.549290 3.290240 6.456720 -0.000001 -0.000000 6.372840 -0.007961 -3.435780 12.994200 -0.242716 4.980390 -90.542200 1.620100 -71.492400 5.348090 -0.000007 -0.000001 -69.133300 39.075700 -9.966570 24.328600 0.000019 0.000005 3.218940 8.130950 -21.684300 22.291600 -0.000001 0.000005 3.748510 5.489350 -6.110420 12.994500 -0.242716 -4.980390 87.267700 8.477860 -72.062400 -5.348130 -0.000001 -0.000004 -59.276100 23.680600 -19.360100 -24.328900 0.000322 -0.000009 11.187800 9.675280 -49.636800 -22.291500 -0.000108 -0.000004 7.594940 5.277080 0.708281 -2.192480 -6.469440 -0.000000 -175.495000 -9.483470 -1.171690 39.081100 -0.000007 -0.000012 -0.078023 0.250760 17.283300 40.985400 -0.000006 -0.000013 -1.570400 1.483030 -63.420400 11.754300 -0.000000 0.000003 -0.000000 -0.000006 -16.577700 -2.192510 6.469440 -0.000001 179.292000 9.654200 -179.049000 -39.081100 -0.002282 -0.040193 -0.043487 0.185490 14.166000 -40.985400 0.000008 0.000006 1.767700 9.236320 -62.981500 -11.754300 -0.000006 -0.000006 -0.003715 -0.048444 -18.543500
0.000000 0.000000 0.000000 0.000000 0.000000 -0.000000 -1.084370 92.880600 -0.909661 88.590300 -6.697810 2.648840 15.735700 0.000005 -0.000001 95.977800 86.519200 -96.005900 8.984550 -0.406207 -0.000000 -0.842025 0.726976 -0.050773 16.377300 -0.000001 -0.000001 4.478410 -1.389670 3.427930 6.456720 -0.000001 -0.000000 7.029890 0.086938 -3.486500 12.994200 -0.242716 4.980390 -90.522100 1.549930 -71.382900 5.348090 -0.000007 -0.000001 -69.240500 39.049600 -9.798510 24.328600 0.000019 0.000005 3.220950 8.206090 -21.517400 22.291600 -0.000001 0.000005 3.790430 5.491020 -6.175750 12.994500 -0.242716 -4.980390 87.337700 8.209530 -71.962800 -5.348130 -0.000001 -0.000004 -58.076800 19.316400 -23.005500 -24.328900 0.000322 -0.000009 14.338900 8.436940 -60.142000 -22.291500 -0.000108 -0.000004 9.525350 5.269730 0.906909 -2.192480 -6.469440 -0.000000 -175.399000 -9.971940 -0.960415 39.081100 -0.000007 -0.000012 -0.079646 0.253242 17.458600 40.985400 -0.000006 -0.000013 -1.586770 0.963931 -63.591600 11.754300 -0.000000 0.000003 -0.000000 -0.000003 -16.577600 -2.192510 6.469440 -0.000001 179.305000 9.216810 -179.011000 -39.081100 -0.002282 -0.040193 -0.043822 0.186374 14.198200 -40.985400 0.000008 0.000006 1.670760 9.845520 -62.868900 -11.754300 -0.000006 -0.000006 -0.003460 -0.045705 -18.432000
0.000000 0.000000 0.000000 0.000000 0.000000 -0.000000 -0.961823 92.874100 -0.952915 88.488000 -7.607420 2.787570 15.735700 0.000005 -0.000001 96.640200 86.535500 -96.701500 8.984550 -0.406207 -0.000000 -0.883166 0.805675 -0.116366 16.377300 -0.000001 -0.000001 4.709930 -1.268160 3.586170 6.456720 -0.000001 -0.000000 7.743050 0.101729 -3.476890 12.994200 -0.242716 4.980390 -90.494500 1.462020 -71.310100 5.348090 -0.000007 -0.000001 -69.391700 38.844000 -9.692570 24.328600 0.000019 0.000005 3.285170 8.399830 -21.451300 22.291600 -0.000001 0.000005 3.790300 5.490330 -6.148840 12.994500 -0.242716 -4.980390 87.436800 7.898810 -71.956600 -5.348130 -0.000001 -0.000004 -57.128300 14.541200 -27.254500 -24.328900 0.000322 -0.000009 16.591100 5.734080 -71.462000 -22.291500 -0.000108 -0.000004 12.288300 5.266470 0.995455 -2.192480 -6.469440 -0.000000 -175.357000 -10.349900 -0.789241 39.081100 -0.000007 -0.000012 -0.079976 0.251953 17.610800 40.985400 -0.000006 -0.000013 -1.591460 0.457289 -63.727900 11.754300 -0.000000 0.000003 -0.000001 -0.000011 -16.577900 -2.192510 6.469440 -0.000001 179.296000 8.780410 -179.011000 -39.081100 -0.002282 -0.040193 -0.044247 0.187034 14.272500 -40.985400 0.000008 0.000006 1.613450 10.310900 -62.784400 -11.754300 -0.000006 -0.000006 -0.003621 -0.047435 -18.502500
